<?xml version="1.0" standalone="no"?><!DOCTYPE svg PUBLIC "-//W3C//DTD SVG 1.1//EN" "http://www.w3.org/Graphics/SVG/1.1/DTD/svg11.dtd"><svg class="icon" width="200px" height="200.00px" viewBox="0 0 1024 1024" version="1.1" xmlns="http://www.w3.org/2000/svg"><path fill="#ffffff" d="M3.648 191.744c-1.28 4.16-2.624 8.32-2.624 12.992l0 606.848c0 3.776 1.28 7.104 2.112 10.56l338.368-344.064L3.648 191.744zM988.928 162.88c-2.56-0.512-4.928-1.6-7.552-1.6L43.712 161.28c-2.624 0-4.928 1.088-7.552 1.6l476.352 403.648L988.928 162.88zM1021.44 191.808l-337.728 286.272 338.24 344.064C1022.784 818.56 1024 815.296 1024 811.52L1024 204.736C1024 200.192 1022.784 195.904 1021.44 191.808zM526.144 611.456C522.24 614.848 517.44 616.448 512.576 616.448c-4.8 0-9.728-1.664-13.632-4.992L374.4 505.984l-340.992 346.752c3.392 0.896 6.72 2.112 10.304 2.112l937.664 0c3.712 0 7.04-1.28 10.432-2.112l-341.056-346.816L526.144 611.456z" /></svg>