<?xml version="1.0" standalone="no"?><!DOCTYPE svg PUBLIC "-//W3C//DTD SVG 1.1//EN" "http://www.w3.org/Graphics/SVG/1.1/DTD/svg11.dtd"><svg class="icon" width="200px" height="200.00px" viewBox="0 0 1024 1024" version="1.1" xmlns="http://www.w3.org/2000/svg"><path fill="#ffffff" d="M849.368 696.616 328.115 696.616c-12.148 0-22.577-8.681-24.766-20.631L200.621 117.362 85.595 117.362c-13.911 0-25.188-11.276-25.188-25.185 0-13.909 11.277-25.186 25.188-25.186l136.006 0c12.15 0 22.576 8.683 24.767 20.634L349.099 646.25l500.274 0c13.908 0 25.185 11.272 25.185 25.183C874.552 685.34 863.275 696.616 849.368 696.616zM816.978 573.155 310.851 573.155c-13.908 0-25.184-11.276-25.184-25.188 0-13.91 11.276-25.187 25.184-25.187l488.531 0L900.364 247.18 354.382 247.18c-13.907 0-25.183-11.276-25.183-25.188 0-13.906 11.276-25.184 25.183-25.184l582.023 0c8.229 0 15.937 4.021 20.648 10.758 4.708 6.738 5.827 15.359 3 23.095L840.623 556.635C836.986 566.556 827.542 573.155 816.978 573.155zM365.132 961.009c-55.177 0-100.075-44.91-100.075-100.099 0-55.166 44.898-100.048 100.075-100.048 55.178 0 100.076 44.882 100.076 100.048C465.205 916.099 420.309 961.009 365.132 961.009zM365.132 811.23c-27.411 0-49.705 22.279-49.705 49.68 0 27.425 22.297 49.728 49.705 49.728 27.409 0 49.706-22.303 49.706-49.728C414.838 833.51 392.54 811.23 365.132 811.23zM800.797 961.009c-55.178 0-100.076-44.91-100.076-100.099 0-55.166 44.898-100.048 100.076-100.048 55.188 0 100.098 44.882 100.098 100.048C900.894 916.099 855.985 961.009 800.797 961.009zM800.797 811.23c-27.411 0-49.709 22.279-49.709 49.68 0 27.425 22.298 49.728 49.709 49.728 27.424 0 49.727-22.303 49.727-49.728C850.523 833.51 828.219 811.23 800.797 811.23z" /></svg>