<?xml version="1.0" standalone="no"?><!DOCTYPE svg PUBLIC "-//W3C//DTD SVG 1.1//EN" "http://www.w3.org/Graphics/SVG/1.1/DTD/svg11.dtd"><svg class="icon" width="200px" height="200.00px" viewBox="0 0 1024 1024" version="1.1" xmlns="http://www.w3.org/2000/svg"><path fill="#ffffff" d="M999.619 877.714C999.619 958.513 781.312 1024 512 1024S24.381 958.513 24.381 877.714c0-68.218 155.843-125.318 366.397-141.507C292.62 613.67 170.667 439.394 170.667 329.143 170.667 144.823 320.853 0 512 0c191.147 0 341.333 144.823 341.333 329.143 0 110.25-121.953 284.526-220.11 407.064 210.553 16.19 366.396 73.29 366.396 141.507zM512 188.71c-81.92 0-145.652 61.44-145.652 140.434S430.08 469.577 512 469.577c81.92 0 145.652-61.44 145.652-140.434S593.92 188.709 512 188.709z m120.88 547.888C567.102 818.712 512 877.714 512 877.714s-55.101-59.002-120.88-141.117c-155.941 12.776-269.215 49.104-269.215 92.355 0 53.882 174.665 97.524 390.095 97.524 215.43 0 390.095-43.642 390.095-97.524 0-43.251-113.274-79.579-269.214-92.355z" /></svg>