<?xml version="1.0" standalone="no"?><!DOCTYPE svg PUBLIC "-//W3C//DTD SVG 1.1//EN" "http://www.w3.org/Graphics/SVG/1.1/DTD/svg11.dtd"><svg class="icon" width="200px" height="195.05px" viewBox="0 0 1050 1024" version="1.1" xmlns="http://www.w3.org/2000/svg"><path fill="#ffffff" d="M1031.413654 416.263938a22.575545 22.575545 0 0 1-26.066879-17.981684c-18.244191-101.799958-77.938132-190.159592-168.109059-248.751006-90.564687-58.853921-201.053605-80.74695-311.122512-61.636488a22.470543 22.470543 0 0 1-26.06688-17.955434 22.208036 22.208036 0 0 1 18.270441-25.67312c121.435432-21.079259 243.50088 3.176327 343.699549 68.277899 100.61868 65.390329 167.242788 164.118963 187.639531 278.046713a22.208036 22.208036 0 0 1-18.244191 25.67312z m-368.506397-56.438862c37.748411 24.544343 62.765266 61.636488 70.456701 104.503773a22.181786 22.181786 0 0 1-22.181786 25.988127 22.391791 22.391791 0 0 1-22.129284-18.296691c-5.512633-30.739492-23.59932-57.462637-50.92623-75.234317-27.720669-18.007935-61.583987-24.675596-95.394803-18.821704a22.470543 22.470543 0 0 1-26.06688-17.955434 22.208036 22.208036 0 0 1 18.244191-25.67312c45.203591-7.84894 90.643439 1.207529 127.998091 25.489366zM534.909166 189.117204c76.231841-13.230319 152.857441 1.995048 215.78021 42.893535 63.316529 41.134743 105.265042 103.322495 118.127852 175.117979a22.181786 22.181786 0 0 1-22.181785 25.988127 22.391791 22.391791 0 0 1-22.129285-18.296691c-10.710259-59.667691-45.702354-111.460191-98.59738-145.848522-53.288787-34.624586-118.337857-47.487397-183.176923-36.225875a22.470543 22.470543 0 0 1-26.06688-17.981684 22.155535 22.155535 0 0 1 18.244191-25.646869z m104.110014 532.914117c5.853891-6.851415 13.755332-25.358112 18.795454-36.85589 7.481431-17.062912 15.225368-34.677087 25.515616-49.377442 15.645378-22.313039 34.703338-33.600811 56.701369-33.600811 10.920264 0 30.739492 2.782567 77.019359 26.828148 31.343257 16.275393 152.437431 99.41115 178.215554 123.876741 30.818244 29.243206 44.547326 51.503744 44.547325 72.189243 0 72.320496-169.264087 198.79605-275.316647 198.79605C447.337051 1023.88736 77.150613 474.33034 82.190735 482.389285 44.704829 422.485339 0 337.22328 0 271.176685c0-70.692957 51.34624-145.717268 73.396772-174.671718C90.617188 73.876921 150.783641 0.11264 201.919876 0.11264c73.370522 0 184.069445 192.417146 199.898576 220.794081 23.62557 44.442323 26.48689 63.736539 26.48689 74.341795 0 21.656773-11.497778 40.452227-34.152075 55.835099-14.91036 10.132745-32.813292 17.745428-50.13871 25.121856-9.607732 4.095099-32.157026 18.559198-36.908392 19.687975l-0.525012-1.181278c-0.997524 1.26003-0.525013 1.417534 0.525012 1.181278 16.091639 33.102049 74.788056 259.093756 331.913015 326.137875zM403.052232 223.085524l-1.23378-2.178803-0.761268-1.470035 1.995048 3.648838z m0 0c1.128777 2.0738 0.971273 1.811294 0 0z" /></svg>